<svg xmlns="http://www.w3.org/2000/svg" width="251" height="114" fill="none">
  <path fill="#003750" d="M21.82 64.206V9.997L6.148 37.102l15.67 27.104ZM25.114 8.227 72.112 35.33 56.448 8.227H25.114ZM40.785 38.986l-15.67 27.112H56.44l15.67-27.112H40.786Z"/>
  <path fill="#ED1C24" d="M25.947 13.659v42.42L38.2 34.87h24.517L25.947 13.66Z"/>
  <path fill="#003750" d="M82.979 8.689h22.403v5.539H89.448v6.093h13.578v5.49H89.448v12.784h-6.47V8.689ZM106.164 27.055c0-6.648 5.174-11.995 11.963-11.995 6.284 0 11.223 5.354 11.223 11.902 0 1.11-.135 2.219-.135 2.219h-16.767c.74 3.185 3.373 4.707 6.419 4.707 2.221 0 4.526-.647 6.234-1.8l2.313 4.43c-2.583 1.707-5.586 2.54-8.589 2.54-6.747 0-12.654-4.388-12.654-11.996h-.007v-.007Zm17.365-1.984c-.463-2.908-2.769-4.842-5.587-4.842-2.818 0-4.989 1.941-5.586 4.842h11.18-.007ZM131.891 27.055c0-6.648 4.156-11.995 10.532-11.995 2.676 0 5.309 1.06 6.974 3.043V8.227h6.192v30.368h-5.864v-2.766c-1.666 2.218-4.619 3.228-7.387 3.228-6.377 0-10.44-5.354-10.44-11.995l-.007-.007Zm17.506 0c0-3.598-2.313-6.279-5.494-6.279-3.181 0-5.728 2.674-5.728 6.279s2.398 6.278 5.728 6.278c3.331 0 5.494-2.58 5.494-6.278ZM158.862 27.055c0-6.648 5.174-11.995 11.963-11.995 6.284 0 11.223 5.354 11.223 11.902 0 1.11-.135 2.219-.135 2.219h-16.767c.74 3.185 3.373 4.707 6.419 4.707 2.221 0 4.526-.647 6.234-1.8l2.313 4.43c-2.583 1.707-5.586 2.54-8.589 2.54-6.747 0-12.654-4.388-12.654-11.996l-.007-.007Zm17.372-1.984c-.463-2.908-2.769-4.842-5.587-4.842-2.818 0-4.988 1.941-5.586 4.842h11.18-.007ZM185.656 15.522h6.099v4.43c.647-1.892 3.003-4.892 8.084-4.892v6.74c-5.359 0-7.992 2.446-7.992 7.935v8.86h-6.191V15.522ZM201.54 27.055c0-6.648 4.064-11.995 10.44-11.995 2.676 0 5.544 1.06 7.202 3.278v-2.816h6.049v23.073h-6.049v-2.766c-1.616 2.218-4.526 3.228-7.202 3.228-6.376 0-10.44-5.354-10.44-11.995v-.007Zm17.507 0c0-3.598-2.313-6.279-5.494-6.279-3.181 0-5.729 2.674-5.729 6.279s2.398 6.278 5.729 6.278c3.33 0 5.494-2.58 5.494-6.278ZM229.672 8.227h6.191v30.368h-6.191V8.227ZM82.979 46.516h22.403v5.539H89.448v6.093h13.578v5.49H89.448v12.784h-6.47V46.516ZM108.52 46.054h6.191v30.368h-6.191V46.054ZM118.497 64.882c0-6.648 4.064-11.995 10.44-11.995 2.676 0 5.544 1.06 7.202 3.278v-2.816h6.049v23.073h-6.049v-2.766c-1.615 2.218-4.526 3.228-7.202 3.228-6.376 0-10.44-5.354-10.44-11.995v-.007Zm17.5 0c0-3.598-2.313-6.279-5.494-6.279-3.181 0-5.729 2.674-5.729 6.279s2.398 6.278 5.729 6.278c3.33 0 5.494-2.58 5.494-6.278ZM146.963 53.349h6.049v3.093c1.851-2.538 4.484-3.555 7.295-3.555 6.099 0 8.22 3.925 8.22 10.246v13.289h-6.192V63.915c0-3.37-.875-5.17-4.021-5.17-3.145 0-5.173 2.49-5.173 6.002v11.675h-6.192V53.349h.014ZM173.337 80.34l2.313-3.875c1.851 1.429 4.526 2.076 6.697 2.076 4.298 0 6.469-2.581 6.654-6.279.043-.135.043-.32.043-.505-1.018 1.8-3.509 3.413-6.932 3.413-6.419 0-10.44-4.984-10.44-11.12 0-6.136 4.021-11.17 10.44-11.17 2.953 0 6.006 1.294 7.252 3.597v-3.135h5.864v17.491c0 7.566-4.576 12.365-12.241 12.365-4.156 0-7.529-1.11-9.65-2.858Zm15.749-16.425c0-3.228-2.398-5.674-5.586-5.674s-5.544 2.446-5.544 5.816c0 3.37 2.398 5.724 5.544 5.724 3.145 0 5.586-2.396 5.586-5.86v-.006ZM197.861 64.882c0-6.648 5.174-11.995 11.963-11.995 6.284 0 11.222 5.354 11.222 11.902 0 1.11-.135 2.219-.135 2.219h-16.766c.74 3.185 3.373 4.707 6.419 4.707 2.22 0 4.526-.647 6.234-1.799l2.313 4.43c-2.583 1.706-5.587 2.538-8.59 2.538-6.746 0-12.653-4.387-12.653-11.995l-.007-.007Zm17.364-1.984c-.462-2.908-2.768-4.842-5.586-4.842-2.818 0-4.989 1.941-5.587 4.842h11.18-.007ZM86.935 91.98h1.246l5.266 11.248h-1.402l-1.039-2.183h-6.874l-1.04 2.183H81.67l5.266-11.249Zm3.573 7.941-2.064-4.358c-.384-.81-.811-1.884-.882-2.027-.072.135-.484 1.195-.883 2.027l-2.064 4.358h5.893ZM98.3 97.618c0-3.221 2.513-5.781 5.857-5.781 3.345 0 5.836 2.56 5.836 5.78 0 3.222-2.512 5.781-5.836 5.781-3.323 0-5.856-2.559-5.856-5.78Zm10.255 0c0-2.489-1.907-4.515-4.398-4.515-2.49 0-4.419 2.026-4.419 4.515 0 2.488 1.907 4.515 4.419 4.515 2.513 0 4.398-2.027 4.398-4.515ZM111.43 94.802h1.317v1.436c.591-1.024 1.679-1.607 2.925-1.607 2.113 0 3.046 1.28 3.046 3.499v5.105h-1.317V98.3c0-1.557-.569-2.389-2.092-2.389-1.523 0-2.562 1.173-2.562 2.581v4.743h-1.317v-8.433ZM120.397 99.018c0-2.438 1.836-4.394 4.242-4.394 2.249 0 4.035 1.941 4.035 4.345 0 .241-.036.505-.036.519h-6.874c.206 1.678 1.508 2.737 3.067 2.737.953 0 1.907-.327 2.597-.903l.57.967a5.168 5.168 0 0 1-3.188 1.109c-2.392 0-4.42-1.713-4.42-4.38h.007Zm6.982-.533c-.136-1.557-1.331-2.68-2.804-2.68-1.473 0-2.612 1.109-2.804 2.68h5.608ZM128.887 92.015h1.388l2.619 7.87c.228.676.448 1.508.448 1.508s.171-.832.384-1.507l2.37-7.907h1.388l2.37 7.907c.206.69.384 1.507.384 1.507s.228-.81.448-1.507l2.612-7.871h1.402l-3.757 11.284h-1.388l-2.37-7.75c-.228-.726-.398-1.728-.398-1.728s-.157 1.002-.385 1.728l-2.391 7.75h-1.388l-3.743-11.284h.007ZM144.565 99.018c0-2.438 1.836-4.394 4.241-4.394 2.249 0 4.036 1.941 4.036 4.345 0 .241-.036.505-.036.519h-6.875c.207 1.678 1.509 2.737 3.068 2.737.953 0 1.907-.327 2.597-.903l.569.967a5.165 5.165 0 0 1-3.188 1.109c-2.391 0-4.419-1.713-4.419-4.38h.007Zm6.974-.533c-.135-1.557-1.331-2.68-2.804-2.68-1.473 0-2.612 1.109-2.804 2.68h5.608ZM153.952 102.119l.533-1.074a3.862 3.862 0 0 0 2.755 1.109c1.16 0 2.113-.533 2.113-1.301 0-.882-1.025-1.123-2.042-1.387-1.559-.398-2.982-.831-2.982-2.438 0-1.522 1.594-2.404 3.01-2.404 1.16 0 2.007.313 2.875.903l-.519 1.074a3.99 3.99 0 0 0-2.342-.725c-.889 0-1.679.483-1.679 1.144 0 .832.932 1.024 1.921 1.23 1.523.349 3.103.918 3.103 2.582 0 1.784-1.822 2.581-3.466 2.581-1.644 0-2.803-.782-3.287-1.28v-.014h.007ZM162.904 100.696v-4.813h-1.266v-1.088h1.266v-1.82l1.317-.242v2.062h2.875v1.088h-2.875v4.842c0 1.159.505 1.486 1.174 1.486.783 0 1.388-.469 1.388-.469l.434 1.024c-.327.227-1.025.625-1.943.625-1.487 0-2.37-.725-2.37-2.702v.007ZM172.291 97.603c0-3.2 2.512-5.759 5.857-5.759 1.487 0 2.861.533 3.864 1.436l-.811.932c-.847-.725-1.85-1.11-2.961-1.11-2.597 0-4.504 2.027-4.504 4.501 0 2.475 1.907 4.537 4.419 4.537 1.302 0 2.477-.519 3.288-1.387l.868.953c-1.039 1.038-2.491 1.692-4.156 1.692-3.345 0-5.857-2.559-5.857-5.794h-.007ZM183.122 99.018c0-2.46 1.957-4.394 4.434-4.394 2.476 0 4.434 1.941 4.434 4.394 0 2.454-1.958 4.38-4.434 4.38-2.477 0-4.434-1.941-4.434-4.38Zm7.515 0c0-1.784-1.33-3.114-3.081-3.114s-3.082 1.33-3.082 3.114c0 1.785 1.331 3.101 3.082 3.101s3.081-1.33 3.081-3.1ZM193.548 94.802h1.317v1.45c.469-.917 1.523-1.628 2.704-1.628 1.352 0 2.306.59 2.704 1.785.605-1.23 1.922-1.785 2.911-1.785 2.028 0 3.103 1.174 3.103 3.499v5.105h-1.331v-4.935c0-1.436-.505-2.389-2.043-2.389-1.423 0-2.32 1.145-2.32 2.403v4.914h-1.33v-4.935c0-1.436-.506-2.389-2.029-2.389-1.522 0-2.355 1.244-2.355 2.474v4.843h-1.317v-8.426l-.014.014ZM208.415 94.802h1.266v1.45c.627-1.087 1.851-1.628 3.224-1.628 2.341 0 3.985 1.92 3.985 4.38s-1.644 4.394-3.985 4.394c-1.331 0-2.548-.554-3.167-1.642v3.911h-1.316V94.802h-.007Zm7.116 4.202c0-1.785-1.245-3.1-2.925-3.1-1.679 0-2.875 1.33-2.875 3.1 0 1.771 1.267 3.115 2.875 3.115 1.609 0 2.925-1.316 2.925-3.115ZM218.057 99.018c0-2.474 1.644-4.394 3.986-4.394 1.352 0 2.547.555 3.166 1.643v-1.472h1.317v8.426h-1.317v-1.472c-.626 1.109-1.821 1.642-3.166 1.642-2.342 0-3.986-1.941-3.986-4.38v.007Zm7.16 0c0-1.763-1.267-3.114-2.875-3.114-1.609 0-2.925 1.316-2.925 3.114 0 1.799 1.245 3.101 2.925 3.101 1.679 0 2.875-1.33 2.875-3.1ZM228.732 94.802h1.317v1.436c.59-1.024 1.679-1.607 2.925-1.607 2.113 0 3.045 1.28 3.045 3.499v5.105h-1.316V98.3c0-1.557-.569-2.389-2.092-2.389-1.523 0-2.562 1.173-2.562 2.581v4.743h-1.317v-8.433ZM238.275 104.522c.918 0 1.488-.256 2.064-1.472l.192-.384-3.793-7.871h1.367l2.647 5.66c.192.398.384.953.384.953s.264-.69.399-1.003l2.512-5.603h1.352l-4.021 8.845c-.918 1.991-2.113 2.126-3.103 2.126v-1.251Z"/>
</svg>
