<svg xmlns="http://www.w3.org/2000/svg" width="270" height="75" fill="none">
  <path fill="#003750" d="M21.975 64.654V10.067L6.193 37.36l15.782 27.294ZM25.294 8.284l47.332 27.294L56.851 8.284H25.294ZM41.076 39.258l-15.782 27.3h31.55l15.782-27.3h-31.55Z"/>
  <path fill="#ED1C24" d="M26.132 13.754V56.47l12.342-21.358h24.692L26.132 13.754Z"/>
  <path fill="#003750" d="M87.147 55.418h1.255l5.303 11.327h-1.412l-1.046-2.199h-6.924l-1.046 2.199h-1.433l5.303-11.327Zm3.591 7.997-2.078-4.389c-.387-.816-.817-1.897-.89-2.04-.07.136-.486 1.203-.888 2.04l-2.078 4.39h5.934ZM98.594 61.096c0-3.244 2.53-5.821 5.898-5.821 3.369 0 5.877 2.577 5.877 5.82 0 3.244-2.53 5.822-5.877 5.822s-5.898-2.578-5.898-5.822Zm10.32 0c0-2.506-1.92-4.547-4.429-4.547-2.509 0-4.451 2.04-4.451 4.547 0 2.505 1.921 4.546 4.451 4.546 2.53 0 4.429-2.04 4.429-4.546ZM111.817 58.26h1.326v1.447c.595-1.032 1.692-1.619 2.946-1.619 2.129 0 3.067 1.29 3.067 3.523v5.14h-1.325v-4.968c0-1.568-.574-2.406-2.108-2.406-1.533 0-2.58 1.181-2.58 2.6v4.775h-1.326V58.26ZM120.848 62.506c0-2.456 1.849-4.425 4.272-4.425 2.265 0 4.064 1.955 4.064 4.375 0 .243-.036.508-.036.522h-6.924c.208 1.69 1.52 2.757 3.089 2.757.961 0 1.921-.33 2.616-.91l.574.975a5.208 5.208 0 0 1-3.211 1.117c-2.409 0-4.451-1.726-4.451-4.411h.007Zm7.031-.537c-.143-1.568-1.34-2.7-2.824-2.7-1.483 0-2.63 1.118-2.824 2.7h5.655-.007ZM129.399 55.453h1.397l2.638 7.926c.229.68.451 1.518.451 1.518s.172-.837.387-1.518l2.387-7.961h1.398l2.387 7.962c.207.694.387 1.517.387 1.517s.229-.816.451-1.518l2.638-7.925h1.412l-3.785 11.362h-1.397l-2.387-7.804c-.229-.73-.401-1.74-.401-1.74s-.158 1.01-.387 1.74l-2.409 7.804h-1.397l-3.77-11.363ZM145.181 62.506c0-2.456 1.849-4.425 4.272-4.425 2.265 0 4.064 1.955 4.064 4.375 0 .243-.036.508-.036.522h-6.924c.208 1.69 1.52 2.757 3.089 2.757.961 0 1.921-.33 2.616-.91l.574.975a5.208 5.208 0 0 1-3.211 1.117c-2.408 0-4.451-1.726-4.451-4.411h.007Zm7.031-.537c-.143-1.568-1.34-2.7-2.824-2.7-1.483 0-2.63 1.118-2.824 2.7h5.655-.007ZM154.642 65.628l.537-1.081a3.887 3.887 0 0 0 2.774 1.117c1.169 0 2.129-.538 2.129-1.31 0-.889-1.025-1.132-2.057-1.397-1.57-.4-3.003-.838-3.003-2.456 0-1.532 1.605-2.42 3.032-2.42 1.168 0 2.021.315 2.895.91l-.523 1.08a4.018 4.018 0 0 0-2.358-.73c-.896 0-1.692.487-1.692 1.153 0 .838.939 1.031 1.936 1.239 1.533.35 3.125.923 3.125 2.599 0 1.797-1.835 2.599-3.491 2.599-1.656 0-2.824-.788-3.311-1.289v-.014h.007ZM163.658 64.203v-4.847h-1.275V58.26h1.275v-1.833l1.326-.243v2.076h2.896v1.096h-2.896v4.875c0 1.168.509 1.497 1.183 1.497.788 0 1.398-.473 1.398-.473l.437 1.031c-.33.23-1.032.63-1.957.63-1.498 0-2.387-.73-2.387-2.72v.007ZM173.112 61.081c0-3.222 2.53-5.8 5.899-5.8 1.498 0 2.874.538 3.892 1.447l-.817.938c-.853-.73-1.864-1.117-2.982-1.117-2.616 0-4.537 2.04-4.537 4.532s1.921 4.568 4.451 4.568c1.304 0 2.494-.523 3.311-1.396l.875.96c-1.047 1.045-2.509 1.704-4.186 1.704-3.369 0-5.899-2.578-5.899-5.836h-.007ZM184.021 62.506c0-2.477 1.971-4.425 4.465-4.425 2.494 0 4.465 1.955 4.465 4.425 0 2.47-1.971 4.41-4.465 4.41-2.494 0-4.465-1.954-4.465-4.41Zm7.568 0c0-1.797-1.34-3.136-3.103-3.136-1.763 0-3.103 1.339-3.103 3.136 0 1.797 1.34 3.122 3.103 3.122 1.763 0 3.103-1.34 3.103-3.122ZM194.521 58.26h1.326v1.46c.473-.923 1.534-1.639 2.724-1.639 1.361 0 2.322.594 2.723 1.797.609-1.238 1.935-1.797 2.932-1.797 2.042 0 3.124 1.182 3.124 3.523v5.14h-1.34v-4.968c0-1.447-.509-2.406-2.057-2.406-1.433 0-2.336 1.153-2.336 2.42v4.947h-1.341V61.77c0-1.447-.509-2.406-2.042-2.406-1.534 0-2.373 1.253-2.373 2.491v4.876h-1.326v-8.484l-.014.014ZM209.493 58.26h1.276v1.46c.631-1.095 1.864-1.639 3.247-1.639 2.358 0 4.014 1.933 4.014 4.41 0 2.478-1.656 4.425-4.014 4.425-1.34 0-2.566-.558-3.189-1.653V69.2h-1.326V58.26h-.008Zm7.168 4.232c0-1.797-1.255-3.122-2.946-3.122-1.692 0-2.896 1.339-2.896 3.122s1.276 3.136 2.896 3.136c1.62 0 2.946-1.325 2.946-3.136ZM219.205 62.506c0-2.492 1.656-4.425 4.014-4.425 1.362 0 2.566.559 3.189 1.654v-1.482h1.326v8.484h-1.326v-1.482c-.63 1.117-1.835 1.654-3.189 1.654-2.358 0-4.014-1.954-4.014-4.41v.007Zm7.203 0c0-1.776-1.276-3.136-2.895-3.136-1.62 0-2.946 1.325-2.946 3.136 0 1.811 1.254 3.122 2.946 3.122 1.691 0 2.895-1.34 2.895-3.122ZM229.956 58.26h1.326v1.447c.595-1.032 1.691-1.619 2.946-1.619 2.128 0 3.067 1.29 3.067 3.523v5.14h-1.326v-4.968c0-1.568-.573-2.406-2.107-2.406-1.534 0-2.58 1.181-2.58 2.6v4.775h-1.326V58.26ZM239.567 68.048c.925 0 1.498-.258 2.079-1.482l.193-.387-3.82-7.926h1.376l2.667 5.7c.193.4.387.959.387.959s.258-.695.401-1.01l2.53-5.642h1.362l-4.05 8.907c-.924 2.005-2.128 2.14-3.125 2.14v-1.259ZM83.313 8.75h22.562v5.577H89.828v6.136h13.675v5.527H89.828v12.874h-6.515V8.749ZM106.915 23.757c0-8.55 6.608-15.473 15.911-15.473 4.143 0 7.863 1.396 10.558 3.81l-4 4.367c-2.05-1.769-4.142-2.277-6.185-2.277-5.49 0-9.49 4.274-9.49 9.573 0 5.298 3.907 9.708 9.261 9.708 2.788 0 5.346-1.066 7.21-3.114l4.049 4.553c-2.881 2.786-6.794 4.461-11.396 4.461-9.303 0-15.911-6.924-15.911-15.616l-.007.008ZM137.132 8.75h6.515v30.114h-6.515V8.749Z"/>
  <path fill="#003750" d="M83.313 8.75h22.562v5.577H89.828v6.136h13.675v5.527H89.828v12.874h-6.515V8.749ZM106.915 23.757c0-8.55 6.608-15.473 15.911-15.473 4.143 0 7.863 1.396 10.558 3.81l-4 4.367c-2.05-1.769-4.142-2.277-6.185-2.277-5.49 0-9.49 4.274-9.49 9.573 0 5.298 3.907 9.708 9.261 9.708 2.788 0 5.346-1.066 7.21-3.114l4.049 4.553c-2.881 2.786-6.794 4.461-11.396 4.461-9.303 0-15.911-6.924-15.911-15.616l-.007.008ZM137.132 8.75h6.515v30.114h-6.515V8.749ZM157.975 8.678h9.145v2.277h-6.508v2.506h5.541v2.262h-5.541v5.263h-2.637V8.678ZM167.586 16.239c0-2.757 2.222-4.94 5.031-4.94 2.81 0 5.053 2.183 5.053 4.94 0 2.756-2.222 4.94-5.053 4.94s-5.031-2.184-5.031-4.94Zm7.504 0c0-1.482-1.053-2.585-2.473-2.585-1.419 0-2.472 1.103-2.472 2.585s1.053 2.584 2.472 2.584c1.42 0 2.473-1.08 2.473-2.584ZM179.269 11.492h2.487v1.825c.265-.78 1.225-2.011 3.297-2.011v2.77c-2.186 0-3.261 1.01-3.261 3.265v3.645h-2.531v-9.494h.008ZM186.651 22.604l.946-1.597c.753.587 1.849.852 2.731.852 1.756 0 2.638-1.067 2.716-2.585.022-.057.022-.136.022-.207-.416.737-1.434 1.403-2.831 1.403-2.623 0-4.265-2.048-4.265-4.575s1.642-4.597 4.265-4.597c1.204 0 2.451.53 2.96 1.482v-1.288h2.394v7.195c0 3.115-1.864 5.091-4.996 5.091-1.699 0-3.075-.458-3.942-1.174Zm6.429-6.766c0-1.332-.982-2.334-2.279-2.334s-2.265 1.01-2.265 2.391c0 1.382.982 2.356 2.265 2.356 1.283 0 2.279-.989 2.279-2.413ZM197.201 16.239c0-2.735 2.115-4.94 4.881-4.94 2.566 0 4.58 2.205 4.58 4.897 0 .458-.057.909-.057.909h-6.845c.301 1.31 1.376 1.94 2.623 1.94.903 0 1.85-.265 2.545-.737l.946 1.826a6.316 6.316 0 0 1-3.505 1.045c-2.752 0-5.168-1.804-5.168-4.94Zm7.089-.817c-.186-1.195-1.133-1.997-2.279-1.997-1.147 0-2.036.795-2.28 1.997h4.566-.007ZM207.881 16.239c0-2.735 1.698-4.94 4.3-4.94 1.097 0 2.172.436 2.845 1.252V8.485h2.53v12.5h-2.393v-1.138c-.681.91-1.885 1.332-3.018 1.332-2.602 0-4.264-2.205-4.264-4.94Zm7.145 0c0-1.482-.946-2.585-2.243-2.585s-2.336 1.103-2.336 2.585.981 2.584 2.336 2.584 2.243-1.066 2.243-2.584ZM156.527 32.885c0-3.494 2.68-6.322 6.45-6.322 1.678 0 3.19.573 4.279 1.561l-1.619 1.783c-.832-.723-1.678-.93-2.509-.93-2.222 0-3.849 1.746-3.849 3.908 0 2.163 1.584 3.967 3.756 3.967 1.132 0 2.171-.437 2.924-1.274l1.641 1.861c-1.168 1.139-2.752 1.826-4.623 1.826-3.77 0-6.45-2.828-6.45-6.38ZM168.145 34.31c0-2.756 2.222-4.94 5.031-4.94 2.81 0 5.053 2.184 5.053 4.94 0 2.757-2.221 4.94-5.053 4.94-2.831 0-5.031-2.183-5.031-4.94Zm7.504 0c0-1.482-1.053-2.585-2.473-2.585-1.419 0-2.472 1.103-2.472 2.585s1.053 2.585 2.472 2.585c1.42 0 2.473-1.081 2.473-2.585ZM179.606 29.563h2.472v1.275c.545-.852 1.663-1.46 2.788-1.46 1.491 0 2.416.63 2.903 1.689.681-1.139 1.978-1.69 3.053-1.69 2.659 0 3.491 1.84 3.491 4.274v5.413h-2.53v-5.09c0-1.253-.301-2.184-1.641-2.184-1.248 0-1.921 1.01-1.921 2.263v5.011h-2.53v-5.09c0-1.253-.28-2.184-1.642-2.184-1.283 0-1.921 1.103-1.921 2.356v4.918h-2.53V29.57h.008v-.007ZM196.069 29.563h2.394v1.139c.774-.931 1.885-1.332 3.017-1.332 2.602 0 4.265 2.205 4.265 4.919 0 2.713-1.699 4.954-4.301 4.954-1.096 0-2.171-.436-2.845-1.274v3.816h-2.53V29.556v.007Zm7.088 4.747c0-1.503-.96-2.585-2.336-2.585-1.283 0-2.244 1.067-2.244 2.585s.946 2.585 2.244 2.585c1.376 0 2.336-1.081 2.336-2.585ZM206.719 34.31c0-2.756 2.222-4.94 5.032-4.94s5.053 2.184 5.053 4.94c0 2.757-2.222 4.94-5.053 4.94s-5.032-2.183-5.032-4.94Zm7.505 0c0-1.482-1.054-2.585-2.473-2.585-1.419 0-2.473 1.103-2.473 2.585s1.054 2.585 2.473 2.585c1.419 0 2.473-1.081 2.473-2.585ZM218.18 29.563h2.473v1.275c.752-1.046 1.827-1.46 2.981-1.46 2.487 0 3.355 1.61 3.355 4.216v5.47h-2.53v-5.148c0-1.389-.359-2.126-1.642-2.126s-2.114 1.024-2.114 2.47v4.804h-2.53V29.57h.007v-.007ZM228.25 34.31c0-2.735 2.115-4.94 4.881-4.94 2.566 0 4.58 2.205 4.58 4.897 0 .458-.057.91-.057.91h-6.845c.301 1.31 1.376 1.94 2.623 1.94.903 0 1.849-.265 2.545-.737l.946 1.825a6.316 6.316 0 0 1-3.505 1.046c-2.752 0-5.168-1.805-5.168-4.94Zm7.089-.816c-.187-1.196-1.133-1.998-2.279-1.998-1.147 0-2.036.795-2.28 1.998h4.566-.007ZM239.123 29.563h2.473v1.275c.752-1.046 1.828-1.46 2.981-1.46 2.488 0 3.355 1.61 3.355 4.216v5.47h-2.53v-5.148c0-1.389-.359-2.126-1.642-2.126s-2.114 1.024-2.114 2.47v4.804h-2.53V29.57h.007v-.007ZM250.089 36v-4.389h-1.376v-2.048h1.376v-1.825l2.53-.573v2.391h2.602v2.048h-2.602v4.353c0 .816.394 1.081.846 1.081.602 0 1.132-.343 1.204-.4l.717 1.882a4.336 4.336 0 0 1-2.394.723c-1.885 0-2.903-1.102-2.903-3.25V36ZM255.988 37.962l.903-1.955c.638.494 1.526 1.01 2.938 1.01.588 0 1.549-.23 1.549-.795 0-.566-.81-.702-1.62-.93-1.864-.495-3.398-1.125-3.398-2.944 0-1.94 1.885-2.964 3.656-2.964 1.548 0 2.53.38 3.505.953l-.846 1.897c-.925-.458-1.792-.666-2.623-.666-.588 0-1.133.265-1.133.666 0 .53.796.702 1.663.895 1.605.38 3.354 1.081 3.354 3.021 0 2.334-2.358 3.115-4.114 3.115-2.014 0-3.318-.795-3.849-1.289l.015-.014Z"/>
</svg>
