<svg xmlns="http://www.w3.org/2000/svg" width="666" height="165" fill="none">
  <path fill="#ED1C24" d="M56.21 29.349v91.147l26.547-45.574h53.11L56.209 29.35Z"/>
  <path fill="#fff" d="M47.267 137.958V21.481L13.32 79.719l33.947 58.239ZM54.405 17.676l101.812 58.24-33.932-58.24h-67.88ZM88.353 83.768l-33.948 58.254h67.865l33.947-58.254H88.353ZM179.126 54.801c0-21.19 16.527-38.27 39.652-38.27S258.43 33.596 258.43 54.8c0 21.206-16.527 38.378-39.652 38.378s-39.652-17.065-39.652-38.378Zm62.438 0c0-13.17-9.589-23.71-22.663-23.71-13.073 0-22.893 10.54-22.893 23.71 0 13.17 9.712 23.834 22.893 23.834 13.182 0 22.663-10.542 22.663-23.834ZM268.574 34.635h15.139v7.67c4.625-6.295 11.208-8.816 18.269-8.816 15.262 0 20.581 9.732 20.581 25.437v33h-15.494V60.882c0-8.357-2.189-12.833-10.051-12.833-7.863 0-12.951 6.187-12.951 14.895v28.982h-15.493V34.635ZM331.397 63.28c0-16.5 12.95-29.791 29.939-29.791 15.725 0 28.089 13.292 28.089 29.562 0 2.75-.339 5.5-.339 5.5h-41.964c1.85 7.899 8.433 11.688 16.064 11.688 5.55 0 11.331-1.604 15.601-4.461l5.782 11c-6.475 4.232-13.983 6.294-21.507 6.294-16.881 0-31.681-10.878-31.681-29.791h.016Zm43.459-4.934c-1.156-7.211-6.937-12.024-13.983-12.024-7.045 0-12.487 4.813-13.983 12.024h27.982-.016ZM389.656 17.676h16.419l12.133 43.771a344.819 344.819 0 0 1 2.775 10.878c.108-.565 1.264-6.065 2.544-10.878l11.208-43.77h16.757l11.1 43.77c1.157 4.69 2.313 10.313 2.421 10.878.231-.565 1.495-6.188 2.898-10.878l12.488-43.77h16.064l-22.308 74.356h-17.113l-11.439-42.166c-1.387-5.149-2.312-12.146-2.543-12.94-.232.81-1.157 7.791-2.544 12.94l-11.439 42.166h-17.221l-22.2-74.357ZM495.553 63.28c0-16.5 12.95-29.791 29.94-29.791 15.725 0 28.089 13.292 28.089 29.562 0 2.75-.355 5.5-.355 5.5h-41.964c1.85 7.899 8.433 11.688 16.064 11.688 5.55 0 11.331-1.604 15.602-4.461l5.781 11c-6.475 4.232-13.983 6.294-21.506 6.294-16.881 0-31.681-10.878-31.681-29.791h.03Zm43.475-4.934c-1.156-7.211-6.937-12.024-13.983-12.024-7.045 0-12.487 4.813-13.982 12.024h27.981-.016ZM558.068 85.265l5.55-11.794c3.931 2.979 9.358 6.065 18.037 6.065 3.577 0 9.482-1.375 9.482-4.812 0-3.438-4.964-4.232-9.944-5.607-11.439-2.98-20.813-6.753-20.813-17.753 0-11.688 11.563-17.875 22.432-17.875 9.481 0 15.493 2.292 21.506 5.73l-5.195 11.457c-5.658-2.75-10.977-4.002-16.065-4.002-3.576 0-6.937 1.604-6.937 4.002 0 3.209 4.856 4.232 10.175 5.378 9.82 2.292 20.581 6.524 20.581 18.211 0 14.086-14.445 18.792-25.206 18.792-12.364 0-20.35-4.813-23.588-7.792h-.015ZM620.182 73.47V47.01h-8.433V34.635h8.433v-11l15.493-3.438v14.438h15.957V47.01h-15.957v26.232c0 4.92 2.421 6.523 5.196 6.523 3.7 0 6.937-2.062 7.4-2.398l4.394 11.336c-3.469 2.291-8.557 4.354-14.677 4.354-11.563 0-17.806-6.646-17.806-19.586ZM189.425 114.889h5.164l4.348 6.08c1.618 2.246 4.979 7.105 4.979 7.105s3.407-4.813 4.995-7.059l4.348-6.126h5.164v27.378h-5.966v-17.325s-1.064 1.726-2.513 3.804l-6.012 8.494-6.059-8.54c-1.403-1.986-2.467-3.758-2.467-3.758v17.325h-5.966v-27.378h-.015ZM221.753 131.694c0-6.08 3.747-10.984 9.636-10.984 2.466 0 5.118.977 6.644 2.994v-2.582h5.581v21.129h-5.581v-2.536c-1.495 2.032-4.178 2.964-6.644 2.964-5.889 0-9.636-4.904-9.636-10.985Zm16.157 0c0-3.3-2.127-5.744-5.072-5.744-2.945 0-5.288 2.444-5.288 5.744s2.22 5.745 5.288 5.745 5.072-2.368 5.072-5.745ZM248.039 121.137h5.581v2.827c1.711-2.322 4.131-3.254 6.737-3.254 5.627 0 7.585 3.59 7.585 9.38v12.161h-5.72v-11.443c0-3.086-.802-4.736-3.715-4.736-2.914 0-4.779 2.277-4.779 5.485v10.694h-5.72v-21.129h.031v.015ZM271.549 133.772v-12.634h5.72v11.87c0 2.964 1.279 4.309 3.916 4.309 2.99 0 4.44-2.491 4.44-5.363v-10.816h5.719v21.129h-5.365v-2.964c-1.279 2.062-4.178 3.376-6.644 3.376-5.89 0-7.755-3.422-7.755-8.922h-.031v.015ZM298.251 125.736h-3.33v-4.553h3.33v-1.39c0-4.904 2.729-7.012 6.352-7.012 1.911 0 4.054.55 5.534 1.313l-1.619 4.187c-.462-.214-1.403-.642-2.389-.642-1.187 0-2.174.596-2.174 2.796v.764h5.334v4.552h-5.334v16.516h-5.72v-16.516h.016v-.015ZM310.152 131.694c0-6.08 3.747-10.984 9.636-10.984 2.467 0 5.118.977 6.644 2.994v-2.582h5.581v21.129h-5.581v-2.536c-1.495 2.032-4.177 2.964-6.644 2.964-5.889 0-9.636-4.904-9.636-10.985Zm16.157 0c0-3.3-2.127-5.744-5.072-5.744-2.945 0-5.288 2.444-5.288 5.744s2.22 5.745 5.288 5.745 5.072-2.368 5.072-5.745ZM334.804 131.694c0-6.126 5.026-10.984 11.377-10.984 2.945 0 5.504.977 7.631 2.704l-3.453 3.972c-.987-.886-2.343-1.436-4.054-1.436-3.33 0-5.72 2.414-5.72 5.744 0 3.331 2.266 5.745 5.889 5.745 1.789 0 3.531-.672 4.641-1.727l3.021 4.232c-2.05 1.727-4.902 2.75-7.97 2.75-6.352 0-11.378-4.858-11.378-10.984h.016v-.016ZM358.623 135.453v-9.763h-3.115v-4.568h3.115v-4.048l5.719-1.268v5.316h5.889v4.568h-5.889v9.671c0 1.818.894 2.414 1.912 2.414 1.356 0 2.559-.764 2.729-.886l1.618 4.186a9.939 9.939 0 0 1-5.411 1.604c-4.27 0-6.567-2.46-6.567-7.226ZM373.5 133.772v-12.634h5.719v11.87c0 2.964 1.28 4.309 3.916 4.309 2.991 0 4.44-2.491 4.44-5.363v-10.816h5.72v21.129h-5.365v-2.964c-1.28 2.062-4.178 3.376-6.645 3.376-5.889 0-7.755-3.422-7.755-8.922h-.03v.015ZM397.75 121.137h5.627v4.049c.601-1.726 2.775-4.476 7.462-4.476v6.172c-4.949 0-7.369 2.246-7.369 7.272v8.113h-5.72v-21.13ZM413.814 115.225c0-1.864 1.542-3.376 3.361-3.376 1.819 0 3.407 1.527 3.407 3.376s-1.542 3.331-3.407 3.331-3.361-1.528-3.361-3.331Zm.555 5.912h5.72v21.13h-5.72v-21.13ZM425.238 121.137h5.581v2.827c1.711-2.322 4.131-3.254 6.737-3.254 5.627 0 7.585 3.59 7.585 9.38v12.161h-5.72v-11.443c0-3.086-.817-4.736-3.715-4.736-2.899 0-4.779 2.277-4.779 5.485v10.694h-5.72v-21.129h.031v.015ZM449.535 145.857l2.127-3.545c1.711 1.314 4.178 1.895 6.182 1.895 3.962 0 5.966-2.368 6.136-5.745.046-.122.046-.29.046-.458-.94 1.65-3.237 3.132-6.398 3.132-5.92 0-9.635-4.568-9.635-10.175 0-5.607 3.715-10.221 9.635-10.221 2.729 0 5.535 1.192 6.691 3.3v-2.872h5.411v16.011c0 6.921-4.224 11.321-11.3 11.321-3.839 0-6.953-1.008-8.911-2.613v-.03h.016Zm14.537-15.049c0-2.964-2.219-5.194-5.164-5.194s-5.118 2.246-5.118 5.317c0 3.07 2.22 5.24 5.118 5.24s5.164-2.2 5.164-5.363ZM487.398 114.889h11.855c8.094 0 12.364 4.736 12.364 10.557 0 5.821-4.27 10.557-12.41 10.557h-5.843v6.248h-5.966v-27.377.015Zm12.102 16.042c3.53 0 5.843-2.445 5.843-5.485 0-3.04-2.297-5.485-5.797-5.485h-6.182v10.985h6.136v-.015ZM512.866 131.694c0-6.08 3.747-10.984 9.636-10.984 2.466 0 5.118.977 6.644 2.994v-2.582h5.581v21.129h-5.581v-2.536c-1.495 2.032-4.178 2.964-6.644 2.964-5.889 0-9.636-4.904-9.636-10.985Zm16.157 0c0-3.3-2.128-5.744-5.072-5.744-2.945 0-5.288 2.444-5.288 5.744s2.22 5.745 5.288 5.745 5.072-2.368 5.072-5.745ZM539.028 121.137h5.627v4.049c.602-1.726 2.775-4.476 7.462-4.476v6.172c-4.949 0-7.369 2.246-7.369 7.272v8.113h-5.72v-21.13ZM558.222 135.453v-9.763h-3.114v-4.568h3.114v-4.048l5.704-1.268v5.316h5.889v4.568h-5.889v9.671c0 1.818.894 2.414 1.927 2.414 1.357 0 2.559-.764 2.729-.886l1.619 4.186a9.944 9.944 0 0 1-5.411 1.604c-4.271 0-6.568-2.46-6.568-7.226ZM573.377 121.137h5.581v2.827c1.711-2.322 4.131-3.254 6.737-3.254 5.627 0 7.585 3.59 7.585 9.38v12.161h-5.72v-11.443c0-3.086-.817-4.736-3.715-4.736-2.899 0-4.78 2.277-4.78 5.485v10.694h-5.719v-21.129h.031v.015ZM595.916 131.694c0-6.08 4.779-10.984 11.038-10.984 5.797 0 10.36 4.904 10.36 10.908a19.58 19.58 0 0 1-.123 2.032h-15.479c.679 2.918 3.115 4.308 5.92 4.308 2.051 0 4.178-.596 5.751-1.65l2.127 4.049c-2.389 1.558-5.164 2.322-7.924 2.322-6.228 0-11.686-4.018-11.686-10.985h.016Zm16.033-1.818c-.432-2.658-2.559-4.43-5.164-4.43-2.606 0-4.61 1.772-5.165 4.43h10.329ZM620.212 121.137h5.628v4.049c.601-1.726 2.775-4.476 7.461-4.476v6.172c-4.949 0-7.369 2.246-7.369 7.272v8.113h-5.72v-21.13ZM634.442 139.807l2.05-4.354c1.45 1.1 3.454 2.246 6.645 2.246 1.326 0 3.5-.505 3.5-1.773 0-1.268-1.835-1.558-3.67-2.077-4.224-1.1-7.677-2.491-7.677-6.539 0-4.309 4.255-6.585 8.263-6.585 3.5 0 5.72.84 7.924 2.108l-1.911 4.232c-2.097-1.008-4.055-1.482-5.92-1.482-1.326 0-2.559.596-2.559 1.482 0 1.177 1.788 1.559 3.746 1.986 3.623.841 7.585 2.414 7.585 6.723 0 5.194-5.334 6.936-9.296 6.936-4.564 0-7.508-1.772-8.695-2.872v-.031h.015Z"/>
</svg>
