<svg xmlns="http://www.w3.org/2000/svg" width="307" height="113" fill="none">
  <path fill="#003750" d="M21.788 64.002V9.965L6.14 36.984l15.648 27.018ZM25.079 8.2 72.01 35.22 56.37 8.2h-31.29ZM40.727 38.862 25.08 65.888h31.283L72.01 38.862H40.727Z"/>
  <path fill="#ED1C24" d="M25.91 13.616V55.9l12.238-21.143h24.481L25.91 13.616Z"/>
  <path fill="#003750" d="M82.57 25.424c0-9.831 7.619-17.755 18.278-17.755 10.66 0 18.278 7.917 18.278 17.755s-7.618 17.804-18.278 17.804c-10.66 0-18.278-7.917-18.278-17.804Zm28.782 0c0-6.11-4.421-11-10.447-11-6.026 0-10.553 4.89-10.553 11s4.477 11.057 10.553 11.057c6.076 0 10.447-4.89 10.447-11.057ZM123.98 16.068h6.978v3.558c2.132-2.92 5.167-4.09 8.421-4.09 7.036 0 9.488 4.515 9.488 11.801v15.31h-7.142V28.245c0-3.877-1.01-5.954-4.634-5.954-3.624 0-5.969 2.87-5.969 6.91v13.446h-7.142V16.068ZM152.761 29.358c0-7.655 5.969-13.822 13.801-13.822 7.248 0 12.948 6.167 12.948 13.715 0 1.276-.157 2.552-.157 2.552H160.01c.852 3.664 3.887 5.422 7.405 5.422 2.558 0 5.223-.744 7.191-2.07l2.665 5.103c-2.984 1.964-6.445 2.92-9.913 2.92-7.782 0-14.604-5.046-14.604-13.82h.007Zm20.033-2.29c-.533-3.345-3.198-5.578-6.445-5.578-3.248 0-5.757 2.233-6.446 5.578h12.898-.007ZM179.616 8.2h7.569l5.593 20.307a163.571 163.571 0 0 1 1.279 5.046c.05-.262.583-2.813 1.172-5.046l5.167-20.306h7.725l5.116 20.306a140.03 140.03 0 0 1 1.116 5.046c.107-.262.689-2.87 1.336-5.046l5.756-20.306h7.405l-10.283 34.496h-7.888l-5.273-19.563c-.64-2.388-1.066-5.634-1.173-6.003-.106.376-.533 3.615-1.172 6.003l-5.273 19.563h-7.938L179.616 8.2ZM228.964 29.358c0-7.655 5.969-13.822 13.801-13.822 7.248 0 12.948 6.167 12.948 13.715 0 1.276-.164 2.552-.164 2.552h-19.344c.853 3.664 3.888 5.422 7.405 5.422 2.559 0 5.224-.744 7.192-2.07l2.665 5.103c-2.985 1.964-6.446 2.92-9.913 2.92-7.782 0-14.604-5.046-14.604-13.82h.014Zm20.04-2.29c-.533-3.345-3.198-5.578-6.445-5.578-3.248 0-5.757 2.233-6.446 5.578h12.898-.007ZM257.958 39.557l2.559-5.472c1.812 1.382 4.313 2.814 8.314 2.814 1.649 0 4.371-.638 4.371-2.233 0-1.594-2.289-1.963-4.584-2.601-5.273-1.382-9.594-3.133-9.594-8.236 0-5.422 5.33-8.293 10.34-8.293 4.371 0 7.142 1.063 9.914 2.658l-2.395 5.316c-2.608-1.276-5.06-1.857-7.405-1.857-1.649 0-3.198.744-3.198 1.857 0 1.488 2.238 1.963 4.69 2.495 4.527 1.063 9.487 3.027 9.487 8.449 0 6.535-6.658 8.718-11.619 8.718-5.699 0-9.38-2.233-10.873-3.615h-.007ZM285.88 34.085V21.809h-3.888v-5.741h3.888v-5.103l7.142-1.595v6.698h7.355v5.741h-7.355v12.17c0 2.282 1.115 3.026 2.395 3.026 1.705 0 3.197-.957 3.411-1.113l2.025 5.26a12.301 12.301 0 0 1-6.765 2.02c-5.33 0-8.208-3.084-8.208-9.087ZM87.36 91.319h8.606v1.226h-7.2v3.451h6.745v1.213h-6.744v4.238h7.462v1.226h-8.87V91.319ZM97.757 94.14h1.336v1.453c.597-1.035 1.705-1.63 2.97-1.63 2.146 0 3.091 1.297 3.091 3.536v5.167h-1.336v-4.99c0-1.573-.575-2.416-2.124-2.416-1.55 0-2.601 1.19-2.601 2.608v4.798h-1.336V94.14ZM107.656 103.984l.561-.857c.683.68 1.685 1.07 2.687 1.07 1.456 0 3.105-.893 3.105-3.416v-.284c-.369.964-1.549 1.751-3.198 1.751-2.352 0-4.001-1.822-4.001-4.132 0-2.31 1.649-4.154 4.001-4.154 1.478 0 2.807.667 3.248 1.737v-1.56h1.279v6.606c0 3.431-2.459 4.501-4.335 4.501-1.371 0-2.544-.454-3.354-1.262h.007Zm6.353-5.974c0-1.61-1.315-2.857-2.935-2.857s-2.899 1.276-2.899 2.963 1.265 2.941 2.899 2.941c1.635 0 2.935-1.261 2.935-3.047ZM117.364 91.744c0-.49.383-.893.881-.893.497 0 .895.404.895.893a.887.887 0 0 1-.895.879.87.87 0 0 1-.881-.88Zm.213 2.396h1.336v8.526h-1.336V94.14ZM121.265 94.14h1.336v1.453c.597-1.035 1.705-1.63 2.97-1.63 2.147 0 3.092 1.297 3.092 3.536v5.167h-1.336v-4.99c0-1.573-.576-2.416-2.125-2.416s-2.601 1.19-2.601 2.608v4.798h-1.336V94.14ZM130.347 98.413c0-2.466 1.862-4.45 4.299-4.45 2.282 0 4.094 1.963 4.094 4.394 0 .248-.036.51-.036.524h-6.971c.213 1.701 1.528 2.765 3.105 2.765.967 0 1.933-.334 2.637-.908l.575.978a5.243 5.243 0 0 1-3.233 1.12c-2.423 0-4.477-1.736-4.477-4.43h.007v.007Zm7.078-.545c-.142-1.574-1.35-2.715-2.843-2.715-1.492 0-2.65 1.12-2.842 2.715h5.692-.007ZM140.104 98.413c0-2.466 1.862-4.45 4.3-4.45 2.281 0 4.093 1.963 4.093 4.394 0 .248-.035.51-.035.524h-6.972c.213 1.701 1.528 2.765 3.106 2.765.966 0 1.933-.334 2.636-.908l.576.978a5.248 5.248 0 0 1-3.234 1.12c-2.423 0-4.477-1.736-4.477-4.43h.007v.007Zm7.078-.545c-.142-1.574-1.35-2.715-2.842-2.715-1.493 0-2.651 1.12-2.843 2.715h5.692-.007ZM150.259 94.14h1.336v1.8c.491-1.12 1.599-1.978 3.298-1.978v1.453c-2.004 0-3.298 1.12-3.298 3.204v4.047h-1.336V94.14ZM155.625 98.413c0-2.466 1.862-4.45 4.299-4.45 2.281 0 4.094 1.963 4.094 4.394 0 .248-.036.51-.036.524h-6.971c.213 1.701 1.527 2.765 3.105 2.765.967 0 1.933-.334 2.637-.908l.582.978a5.258 5.258 0 0 1-3.233 1.12c-2.423 0-4.477-1.736-4.477-4.43v.007Zm7.078-.545c-.142-1.574-1.35-2.715-2.843-2.715-1.492 0-2.651 1.12-2.842 2.715h5.692-.007ZM165.382 98.413c0-2.501 1.67-4.45 4.036-4.45 1.372 0 2.58.56 3.212 1.665v-4.487h1.336v11.525h-1.279v-1.488c-.632 1.12-1.876 1.665-3.269 1.665-2.373 0-4.036-1.963-4.036-4.43Zm7.256 0c0-1.786-1.28-3.153-2.914-3.153-1.635 0-2.971 1.332-2.971 3.153 0 1.822 1.265 3.133 2.971 3.133 1.705 0 2.914-1.346 2.914-3.133ZM180.256 91.319h4.669c3.141 0 4.861 1.906 4.861 4.26 0 2.353-1.72 4.252-4.882 4.252h-3.248v2.835h-1.407V91.319h.007Zm4.797 7.286c2.004 0 3.283-1.368 3.283-3.027 0-1.658-1.279-3.033-3.269-3.033h-3.404v6.06h3.39ZM191.399 94.14h1.336v1.8c.49-1.12 1.599-1.978 3.297-1.978v1.453c-2.004 0-3.297 1.12-3.297 3.204v4.047h-1.336V94.14ZM196.736 98.413c0-2.487 1.983-4.45 4.498-4.45 2.516 0 4.499 1.963 4.499 4.45 0 2.488-1.983 4.43-4.499 4.43-2.515 0-4.498-1.963-4.498-4.43Zm7.618 0c0-1.807-1.35-3.153-3.127-3.153-1.776 0-3.127 1.346-3.127 3.153 0 1.808 1.351 3.133 3.127 3.133 1.777 0 3.127-1.346 3.127-3.133ZM207.133 98.413c0-2.501 1.67-4.45 4.036-4.45 1.372 0 2.58.56 3.212 1.665v-4.487h1.336v11.525h-1.279v-1.488c-.632 1.12-1.876 1.665-3.269 1.665-2.374 0-4.036-1.963-4.036-4.43Zm7.248 0c0-1.786-1.279-3.153-2.913-3.153-1.635 0-2.971 1.332-2.971 3.153 0 1.822 1.265 3.133 2.971 3.133 1.705 0 2.913-1.346 2.913-3.133ZM217.863 99.462V94.14h1.336v5.146c0 1.595.775 2.261 2.161 2.261 1.542 0 2.437-1.261 2.437-2.573V94.14h1.336v8.527h-1.279v-1.51c-.526 1.106-1.755 1.68-2.878 1.68-2.111 0-3.106-1.105-3.106-3.38h-.007v.006ZM226.931 98.413c0-2.487 1.983-4.45 4.499-4.45 1.179 0 2.245.418 3.055 1.14l-.845.943c-.526-.489-1.301-.787-2.196-.787-1.791 0-3.141 1.333-3.141 3.154 0 1.822 1.3 3.133 3.176 3.133.967 0 1.841-.368 2.438-.964l.774 1c-.824.786-1.982 1.261-3.269 1.261-2.508 0-4.498-1.942-4.498-4.43h.007ZM236.859 100.115v-4.87h-1.279V94.14h1.279v-1.836l1.336-.248v2.084h2.914v1.105h-2.914v4.905c0 1.177.512 1.51 1.194 1.51.789 0 1.407-.475 1.407-.475l.441 1.035c-.334.226-1.038.63-1.969.63-1.514 0-2.402-.737-2.402-2.728h-.007v-.007ZM242.295 101.546l.548-1.084a3.916 3.916 0 0 0 2.792 1.12c1.18 0 2.147-.546 2.147-1.312 0-.893-1.038-1.14-2.075-1.403-1.578-.404-3.021-.843-3.021-2.466 0-1.623 1.613-2.439 3.056-2.439 1.18 0 2.04.32 2.914.915l-.526 1.084a4.06 4.06 0 0 0-2.374-.737c-.895 0-1.705.49-1.705 1.155 0 .844.945 1.035 1.947 1.24 1.542.348 3.141.93 3.141 2.609 0 1.807-1.841 2.608-3.511 2.608-1.67 0-2.842-.786-3.333-1.297v.007ZM254.547 96.996c0-3.26 2.544-5.847 5.934-5.847 1.528 0 2.878.524 3.951 1.474l-.846.964c-.86-.773-1.876-1.156-3.105-1.156-2.544 0-4.477 2.049-4.477 4.572s1.933 4.572 4.477 4.572a4.386 4.386 0 0 0 3.546-1.787v-2.381h-2.473v-1.19h3.844v4.082c-1.051 1.573-2.842 2.559-4.917 2.559-3.39 0-5.934-2.595-5.934-5.848v-.014ZM267.353 94.14h1.336v1.8c.49-1.12 1.599-1.978 3.297-1.978v1.453c-2.004 0-3.297 1.12-3.297 3.204v4.047h-1.336V94.14ZM272.69 98.413c0-2.487 1.982-4.45 4.498-4.45s4.499 1.963 4.499 4.45c0 2.488-1.983 4.43-4.499 4.43-2.516 0-4.498-1.963-4.498-4.43Zm7.625 0c0-1.807-1.35-3.153-3.127-3.153-1.777 0-3.127 1.346-3.127 3.153 0 1.808 1.35 3.133 3.127 3.133 1.777 0 3.127-1.346 3.127-3.133ZM283.001 99.462V94.14h1.336v5.146c0 1.595.775 2.261 2.161 2.261 1.542 0 2.437-1.261 2.437-2.573V94.14h1.336v8.527h-1.279v-1.51c-.526 1.106-1.755 1.68-2.878 1.68-2.111 0-3.106-1.105-3.106-3.38h-.007v.006ZM292.268 94.14h1.279v1.474c.633-1.106 1.876-1.645 3.269-1.645 2.374 0 4.037 1.943 4.037 4.43 0 2.488-1.67 4.451-4.037 4.451-1.35 0-2.579-.56-3.212-1.665v3.955h-1.336v-11Zm7.22 4.26c0-1.801-1.265-3.134-2.97-3.134-1.706 0-2.914 1.347-2.914 3.133s1.279 3.154 2.914 3.154c1.634 0 2.97-1.332 2.97-3.154Z"/>
  <path stroke="#003750" stroke-miterlimit="10" stroke-width="1.1" d="M87.24 78.086h213.279"/>
  <path fill="#003750" d="M87.317 53.18h2.381L91.702 56a300.52 300.52 0 0 1 2.296 3.296l2.302-3.274 2.004-2.843h2.381v12.702h-2.75v-8.038s-.49.801-1.159 1.765l-2.771 3.94-2.793-3.961a31.433 31.433 0 0 1-1.137-1.744v8.038h-2.75V53.179h-.008ZM102.22 60.976c0-2.821 1.727-5.096 4.441-5.096 1.137 0 2.36.453 3.063 1.389v-1.198h2.573v9.803h-2.573v-1.177c-.689.943-1.926 1.375-3.063 1.375-2.714 0-4.441-2.275-4.441-5.096Zm7.447 0c0-1.531-.98-2.665-2.338-2.665-1.357 0-2.437 1.134-2.437 2.665 0 1.53 1.023 2.665 2.437 2.665s2.338-1.099 2.338-2.665ZM114.336 56.078h2.573v1.311c.789-1.077 1.904-1.51 3.105-1.51 2.594 0 3.497 1.666 3.497 4.353v5.642h-2.637v-5.31c0-1.431-.369-2.196-1.712-2.196-1.344 0-2.203 1.056-2.203 2.544v4.962h-2.637V56.07h.014v.007ZM125.174 61.94v-5.862h2.636v5.507c0 1.376.59 2 1.805 2 1.379 0 2.047-1.156 2.047-2.489v-5.018h2.636v9.803h-2.473v-1.375c-.59.956-1.926 1.566-3.063 1.566-2.714 0-3.574-1.588-3.574-4.14h-.014v.008ZM137.482 58.212h-1.535V56.1h1.535v-.645c0-2.276 1.258-3.254 2.928-3.254.881 0 1.869.255 2.551.61l-.746 1.942c-.213-.1-.647-.298-1.102-.298-.547 0-1.002.277-1.002 1.297v.355h2.459v2.112h-2.459v7.662h-2.636v-7.662h.007v-.007ZM142.968 60.976c0-2.821 1.727-5.096 4.442-5.096 1.137 0 2.359.453 3.063 1.389v-1.198h2.572v9.803h-2.572v-1.177c-.69.943-1.926 1.375-3.063 1.375-2.715 0-4.442-2.275-4.442-5.096Zm7.448 0c0-1.531-.981-2.665-2.338-2.665-1.358 0-2.438 1.134-2.438 2.665 0 1.53 1.024 2.665 2.438 2.665 1.414 0 2.338-1.099 2.338-2.665ZM154.332 60.976c0-2.842 2.316-5.096 5.244-5.096 1.357 0 2.537.453 3.518 1.254l-1.592 1.843c-.455-.411-1.08-.666-1.869-.666-1.535 0-2.637 1.12-2.637 2.665s1.045 2.665 2.715 2.665c.825 0 1.628-.312 2.139-.801l1.393 1.963c-.945.801-2.26 1.276-3.674 1.276-2.928 0-5.245-2.254-5.245-5.096h.008v-.007ZM165.311 62.72v-4.53h-1.436v-2.119h1.436v-1.878l2.636-.588v2.466h2.715v2.12h-2.715v4.486c0 .843.413 1.12.882 1.12.625 0 1.179-.355 1.258-.411l.746 1.942c-.59.39-1.457.744-2.495.744-1.968 0-3.027-1.141-3.027-3.353ZM172.169 61.94v-5.862h2.636v5.507c0 1.376.59 2 1.805 2 1.379 0 2.047-1.156 2.047-2.489v-5.018h2.636v9.803h-2.473v-1.375c-.589.956-1.925 1.566-3.063 1.566-2.714 0-3.574-1.588-3.574-4.14h-.014v.008ZM183.347 56.078h2.594v1.878c.277-.8 1.279-2.076 3.44-2.076v2.863c-2.282 0-3.397 1.042-3.397 3.374v3.764h-2.637v-9.803ZM190.752 53.335a1.57 1.57 0 0 1 1.549-1.566c.839 0 1.571.709 1.571 1.566 0 .858-.711 1.545-1.571 1.545a1.556 1.556 0 0 1-1.549-1.545Zm.256 2.743h2.637v9.803h-2.637v-9.803ZM196.018 56.078h2.573v1.311c.788-1.077 1.904-1.51 3.105-1.51 2.594 0 3.497 1.666 3.497 4.353v5.642h-2.637v-5.31c0-1.431-.377-2.196-1.713-2.196s-2.203 1.056-2.203 2.544v4.962h-2.636V56.07h.014v.007ZM207.218 67.546l.981-1.644c.788.61 1.926.879 2.849.879 1.827 0 2.751-1.099 2.829-2.665.021-.057.021-.135.021-.213-.433.766-1.492 1.453-2.949 1.453-2.729 0-4.442-2.119-4.442-4.72 0-2.602 1.713-4.742 4.442-4.742 1.258 0 2.551.553 3.084 1.531v-1.332h2.494v7.427c0 3.211-1.947 5.252-5.209 5.252-1.769 0-3.205-.467-4.107-1.212v-.014h.007Zm6.701-6.981c0-1.375-1.023-2.41-2.38-2.41-1.358 0-2.36 1.042-2.36 2.467 0 1.424 1.024 2.43 2.36 2.43 1.336 0 2.38-1.02 2.38-2.487ZM224.671 53.18h5.465c3.731 0 5.7 2.197 5.7 4.897s-1.969 4.898-5.721 4.898h-2.693v2.899h-2.751V53.172v.007Zm5.579 7.441c1.627 0 2.693-1.134 2.693-2.544 0-1.41-1.059-2.544-2.672-2.544h-2.849v5.096h2.828v-.008ZM236.411 60.976c0-2.821 1.727-5.096 4.442-5.096 1.137 0 2.359.453 3.063 1.389v-1.198h2.572v9.803h-2.572v-1.177c-.69.943-1.926 1.375-3.063 1.375-2.715 0-4.442-2.275-4.442-5.096Zm7.448 0c0-1.531-.981-2.665-2.338-2.665-1.357 0-2.438 1.134-2.438 2.665 0 1.53 1.024 2.665 2.438 2.665 1.414 0 2.338-1.099 2.338-2.665ZM248.471 56.078h2.594v1.878c.277-.8 1.279-2.076 3.44-2.076v2.863c-2.282 0-3.397 1.042-3.397 3.374v3.764h-2.637v-9.803ZM257.319 62.72v-4.53h-1.436v-2.119h1.436v-1.878l2.629-.588v2.466h2.715v2.12h-2.715v4.486c0 .843.412 1.12.888 1.12.626 0 1.18-.355 1.258-.411l.746 1.942c-.59.39-1.457.744-2.494.744-1.969 0-3.027-1.141-3.027-3.353ZM264.304 56.078h2.573v1.311c.789-1.077 1.904-1.51 3.105-1.51 2.594 0 3.497 1.666 3.497 4.353v5.642h-2.637v-5.31c0-1.431-.376-2.196-1.712-2.196-1.336 0-2.203 1.056-2.203 2.544v4.962h-2.637V56.07h.014v.007ZM274.694 60.976c0-2.821 2.203-5.096 5.088-5.096 2.672 0 4.776 2.275 4.776 5.06 0 .468-.057.943-.057.943h-7.135c.313 1.354 1.435 1.999 2.729 1.999.945 0 1.926-.277 2.651-.766l.98 1.879a6.654 6.654 0 0 1-3.653 1.077c-2.871 0-5.386-1.864-5.386-5.096h.007Zm7.391-.844c-.199-1.233-1.18-2.055-2.381-2.055-1.201 0-2.125.822-2.381 2.055h4.762ZM285.894 56.078h2.594v1.878c.277-.8 1.279-2.076 3.439-2.076v2.863c-2.281 0-3.397 1.042-3.397 3.374v3.764h-2.636v-9.803ZM292.453 64.74l.945-2.02c.668.51 1.592 1.041 3.063 1.041.611 0 1.613-.233 1.613-.822 0-.588-.845-.723-1.691-.964-1.947-.51-3.539-1.155-3.539-3.033 0-1.999 1.961-3.055 3.809-3.055 1.613 0 2.637.39 3.653.978l-.881 1.963c-.967-.467-1.869-.687-2.729-.687-.611 0-1.18.276-1.18.687 0 .546.824.723 1.727.922 1.67.39 3.496 1.12 3.496 3.118 0 2.41-2.459 3.218-4.285 3.218-2.103 0-3.461-.822-4.008-1.332v-.014h.007Z"/>
</svg>
