<svg xmlns="http://www.w3.org/2000/svg" width="404" height="120" fill="none">
  <path fill="#003750" d="M21.614 67.751V12.81L6 40.28l15.614 27.471ZM24.9 11.021l46.827 27.471-15.606-27.47H24.9ZM40.507 42.19 24.9 69.663h31.214L71.727 42.19h-31.22Z"/>
  <path fill="#ED1C24" d="M25.727 16.523v42.99l12.214-21.495H62.37L25.727 16.523Z"/>
  <path fill="#003750" d="M80.018 11.495h6.517L91.348 29.3a141.71 141.71 0 0 1 1.103 4.432c.042-.23.502-2.471 1.01-4.432l4.454-17.804h6.651l4.403 17.804c.46 1.91.919 4.195.962 4.432.092-.23.593-2.514 1.145-4.432l4.955-17.804h6.375l-8.856 30.25h-6.793l-4.545-17.15c-.551-2.097-.919-4.941-1.011-5.264-.091.323-.459 3.167-1.01 5.264l-4.545 17.15H88.81l-8.807-30.25h.014ZM121.311 30.046c0-6.715 5.138-12.116 11.881-12.116 6.241 0 11.147 5.408 11.147 12.023 0 1.12-.135 2.24-.135 2.24h-16.652c.735 3.218 3.35 4.755 6.375 4.755 2.206 0 4.496-.654 6.192-1.817l2.297 4.474c-2.566 1.724-5.548 2.564-8.531 2.564-6.701 0-12.567-4.43-12.567-12.116h-.007v-.007Zm17.246-2.003c-.459-2.938-2.75-4.891-5.549-4.891-2.799 0-4.954 1.96-5.548 4.89h11.104-.007ZM146.268 38.995l2.206-4.798c1.562 1.214 3.717 2.471 7.153 2.471 1.42 0 3.76-.56 3.76-1.96 0-1.401-1.972-1.724-3.944-2.285-4.545-1.213-8.256-2.75-8.256-7.225 0-4.754 4.587-7.268 8.899-7.268 3.76 0 6.149.934 8.531 2.334l-2.064 4.662c-2.247-1.12-4.361-1.63-6.375-1.63-1.421 0-2.75.653-2.75 1.63 0 1.307 1.93 1.723 4.036 2.19 3.902.934 8.164 2.657 8.164 7.412 0 5.731-5.732 7.641-10.001 7.641-4.906 0-8.072-1.96-9.359-3.167v-.007ZM170.583 34.197V23.432h-3.35v-5.035h3.35v-4.474l6.149-1.4v5.874h6.333v5.035h-6.333v10.672c0 2.004.962 2.657 2.064 2.657 1.47 0 2.75-.84 2.934-.976l1.745 4.618a10.438 10.438 0 0 1-5.824 1.774c-4.587 0-7.061-2.7-7.061-7.972l-.007-.008ZM192.692 38.902v2.793h-5.824V11.028h6.15v9.976c1.653-2.004 4.269-3.074 6.926-3.074 6.333 0 10.461 5.408 10.461 12.116 0 6.708-4.036 12.116-10.369 12.116-2.749 0-5.64-1.027-7.337-3.26h-.007Zm11.472-8.856c0-3.634-2.382-6.341-5.69-6.341-3.308 0-5.456 2.7-5.456 6.341 0 3.642 2.339 6.342 5.456 6.342 3.301 0 5.69-2.657 5.69-6.342ZM213.841 18.39h6.057v4.474c.643-1.91 2.983-4.94 8.029-4.94v6.808c-5.322 0-7.937 2.47-7.937 8.015v8.948h-6.149V18.39ZM229.68 30.046c0-6.758 5.414-12.116 12.249-12.116 6.835 0 12.292 5.358 12.292 12.116s-5.414 12.116-12.292 12.116c-6.877 0-12.249-5.358-12.249-12.116Zm18.257 0c0-3.634-2.565-6.341-6.008-6.341-3.442 0-6.008 2.7-6.008 6.341 0 3.642 2.566 6.342 6.008 6.342 3.443 0 6.008-2.657 6.008-6.342ZM256.794 30.046c0-6.758 5.414-12.116 12.249-12.116 6.835 0 12.291 5.358 12.291 12.116s-5.414 12.116-12.291 12.116c-6.877 0-12.249-5.358-12.249-12.116Zm18.257 0c0-3.634-2.566-6.341-6.008-6.341s-6.008 2.7-6.008 6.341c0 3.642 2.566 6.342 6.008 6.342s6.008-2.657 6.008-6.342ZM284.544 11.028h6.149v17.058l7.888-9.696h7.478l-8.948 10.162 10.461 13.143h-7.386l-6.885-8.905-2.615 3.167v5.731h-6.149v-30.66h.007ZM82.499 49.703h5.549l4.679 6.715c1.745 2.471 5.364 7.829 5.364 7.829s3.669-5.315 5.365-7.785l4.679-6.759h5.549V79.91h-6.425V60.8s-1.145 1.91-2.707 4.194l-6.468 9.372-6.517-9.415c-1.512-2.191-2.657-4.152-2.657-4.152V79.91h-6.425V49.703h.014ZM116.999 68.254c0-6.715 4.036-12.116 10.369-12.116 2.657 0 5.506 1.07 7.153 3.311v-2.844h6.008v23.306h-6.008v-2.794c-1.605 2.24-4.496 3.26-7.153 3.26-6.333 0-10.369-5.408-10.369-12.116v-.007Zm17.38 0c0-3.634-2.297-6.341-5.456-6.341-3.16 0-5.69 2.7-5.69 6.341s2.382 6.342 5.69 6.342c3.308 0 5.456-2.607 5.456-6.342ZM145.272 56.605h6.008v3.124c1.837-2.564 4.453-3.59 7.245-3.59 6.057 0 8.163 3.964 8.163 10.348v13.424h-6.149V67.278c0-3.405-.869-5.222-3.994-5.222-3.124 0-5.138 2.514-5.138 6.062V79.91h-6.149V56.605h.014ZM170.272 70.538v-13.94h6.149v13.1c0 3.26 1.379 4.754 4.22 4.754 3.209 0 4.771-2.75 4.771-5.918V56.605h6.149v23.306h-5.781V76.65c-1.379 2.284-4.496 3.727-7.153 3.727-6.334 0-8.348-3.777-8.348-9.832h-.007v-.007ZM198.439 61.683h-3.577v-5.035h3.577v-1.537c0-5.408 2.933-7.735 6.835-7.735 2.064 0 4.361.604 5.965 1.444l-1.746 4.618c-.501-.23-1.512-.697-2.565-.697-1.287 0-2.34.654-2.34 3.074v.84h5.732v5.035h-5.732v18.228h-6.149V61.683ZM211.699 68.254c0-6.715 4.036-12.116 10.369-12.116 2.657 0 5.506 1.07 7.153 3.311v-2.844h6.008v23.306h-6.008v-2.794c-1.605 2.24-4.496 3.26-7.153 3.26-6.333 0-10.369-5.408-10.369-12.116v-.007Zm17.388 0c0-3.634-2.298-6.341-5.457-6.341-3.16 0-5.69 2.7-5.69 6.341s2.382 6.342 5.69 6.342c3.308 0 5.457-2.607 5.457-6.342ZM238.579 68.254c0-6.758 5.414-12.116 12.249-12.116 3.167 0 5.916 1.07 8.214 2.98l-3.718 4.382c-1.053-.977-2.524-1.587-4.361-1.587-3.577 0-6.15 2.657-6.15 6.341 0 3.685 2.432 6.342 6.333 6.342 1.93 0 3.81-.747 4.998-1.91l3.258 4.66c-2.205 1.911-5.273 3.031-8.581 3.031-6.835 0-12.249-5.357-12.249-12.116h.007v-.007ZM264.229 72.405V61.64h-3.35v-5.035h3.35v-4.474l6.15-1.4v5.874h6.333v5.035h-6.333v10.672c0 2.004.961 2.657 2.064 2.657 1.47 0 2.749-.84 2.933-.976l1.746 4.618a10.441 10.441 0 0 1-5.824 1.773c-4.588 0-7.061-2.7-7.061-7.972h-.008v-.007ZM280.289 70.538v-13.94h6.149v13.1c0 3.26 1.378 4.754 4.22 4.754 3.209 0 4.771-2.75 4.771-5.918V56.605h6.149v23.306h-5.782V76.65c-1.378 2.284-4.495 3.727-7.153 3.727-6.333 0-8.347-3.777-8.347-9.832h-.007v-.007ZM306.314 56.605h6.057v4.475c.643-1.91 2.983-4.942 8.03-4.942v6.809c-5.323 0-7.938 2.47-7.938 8.015v8.949h-6.149V56.605ZM323.376 50.077c0-2.054 1.654-3.728 3.626-3.728s3.669 1.68 3.669 3.728a3.676 3.676 0 0 1-3.669 3.684c-2.014 0-3.626-1.68-3.626-3.684Zm.594 6.528h6.15v23.306h-6.15V56.605ZM334.615 56.605h6.008v3.124c1.837-2.564 4.453-3.59 7.245-3.59 6.057 0 8.163 3.964 8.163 10.348v13.424h-6.149V67.278c0-3.405-.869-5.222-3.993-5.222-3.125 0-5.139 2.514-5.139 6.062V79.91h-6.149V56.605h.014ZM360.258 83.868l2.297-3.914c1.838 1.443 4.496 2.097 6.652 2.097 4.269 0 6.425-2.607 6.608-6.342.043-.136.043-.323.043-.51-1.011 1.817-3.485 3.448-6.885 3.448-6.375 0-10.369-5.035-10.369-11.233s3.994-11.283 10.369-11.283c2.934 0 5.966 1.307 7.203 3.634v-3.167H382v17.668c0 7.641-4.545 12.489-12.157 12.489-4.128 0-7.478-1.12-9.585-2.887Zm15.642-16.59c0-3.261-2.382-5.732-5.548-5.732-3.167 0-5.507 2.47-5.507 5.875 0 3.404 2.382 5.782 5.507 5.782 3.124 0 5.548-2.42 5.548-5.918v-.007ZM87.935 95.768h1.236l5.231 11.362H93.01l-1.032-2.205H85.15l-1.032 2.205h-1.414l5.23-11.362Zm3.548 8.022-2.05-4.402c-.382-.819-.806-1.903-.876-2.047-.071.137-.481 1.207-.877 2.047l-2.05 4.402h5.853ZM99.222 101.464c0-3.254 2.495-5.84 5.818-5.84 3.322 0 5.795 2.586 5.795 5.84 0 3.253-2.495 5.838-5.795 5.838-3.301 0-5.818-2.585-5.818-5.838Zm10.186 0c0-2.514-1.895-4.561-4.368-4.561-2.474 0-4.39 2.047-4.39 4.561 0 2.513 1.894 4.56 4.39 4.56 2.495 0 4.368-2.047 4.368-4.56ZM112.263 98.62h1.308v1.45c.587-1.034 1.668-1.623 2.905-1.623 2.099 0 3.025 1.293 3.025 3.534v5.156h-1.307v-4.984c0-1.573-.566-2.413-2.078-2.413-1.513 0-2.545 1.185-2.545 2.607v4.79h-1.308V98.619ZM121.169 102.878c0-2.463 1.824-4.438 4.213-4.438 2.234 0 4.008 1.961 4.008 4.388 0 .244-.036.51-.036.524h-6.827c.204 1.695 1.498 2.765 3.046 2.765.947 0 1.894-.33 2.58-.912l.565.977a5.077 5.077 0 0 1-3.166 1.12c-2.375 0-4.39-1.73-4.39-4.424h.007Zm6.934-.538c-.141-1.573-1.321-2.708-2.785-2.708-1.463 0-2.594 1.121-2.784 2.708h5.576-.007ZM129.602 95.804h1.378l2.601 7.951c.226.682.446 1.522.446 1.522s.169-.84.381-1.522l2.354-7.987h1.378l2.354 7.987c.205.696.382 1.522.382 1.522s.226-.819.445-1.522l2.601-7.95h1.392l-3.732 11.397h-1.378l-2.354-7.828c-.226-.733-.395-1.746-.395-1.746s-.156 1.013-.382 1.746l-2.375 7.828h-1.378l-3.718-11.398ZM145.173 102.878c0-2.463 1.823-4.438 4.212-4.438 2.234 0 4.008 1.961 4.008 4.388 0 .244-.035.51-.035.524h-6.828c.205 1.695 1.498 2.765 3.046 2.765.947 0 1.895-.33 2.58-.912l.566.977a5.082 5.082 0 0 1-3.167 1.12c-2.375 0-4.389-1.73-4.389-4.424h.007Zm6.927-.538c-.142-1.573-1.322-2.708-2.785-2.708s-2.594 1.121-2.785 2.708h5.577-.007ZM154.496 106.01l.53-1.085a3.799 3.799 0 0 0 2.735 1.121c1.152 0 2.1-.539 2.1-1.315 0-.89-1.011-1.134-2.029-1.4-1.548-.402-2.962-.84-2.962-2.464 0-1.537 1.584-2.427 2.99-2.427 1.152 0 1.994.316 2.856.912l-.516 1.085a3.914 3.914 0 0 0-2.326-.733c-.883 0-1.668.488-1.668 1.156 0 .841.926 1.034 1.909 1.243 1.512.352 3.081.926 3.081 2.607 0 1.802-1.809 2.607-3.442 2.607-1.632 0-2.785-.79-3.265-1.293v-.014h.007ZM163.388 104.573v-4.862h-1.258v-1.099h1.258v-1.838l1.307-.245v2.083h2.856v1.1h-2.856v4.89c0 1.171.502 1.501 1.167 1.501.777 0 1.378-.474 1.378-.474l.431 1.034c-.325.23-1.018.632-1.93.632-1.477 0-2.353-.732-2.353-2.729v.007ZM172.711 101.449c0-3.232 2.495-5.817 5.817-5.817 1.477 0 2.834.538 3.838 1.45l-.806.941c-.841-.732-1.838-1.12-2.94-1.12-2.58 0-4.474 2.047-4.474 4.546s1.894 4.582 4.389 4.582c1.286 0 2.46-.524 3.265-1.4l.863.962a5.734 5.734 0 0 1-4.128 1.709c-3.322 0-5.817-2.585-5.817-5.853h-.007ZM183.469 102.878c0-2.485 1.943-4.438 4.403-4.438 2.46 0 4.403 1.961 4.403 4.438 0 2.478-1.943 4.424-4.403 4.424-2.46 0-4.403-1.96-4.403-4.424Zm7.464 0c0-1.802-1.322-3.145-3.061-3.145-1.739 0-3.061 1.343-3.061 3.145 0 1.803 1.322 3.132 3.061 3.132 1.739 0 3.061-1.343 3.061-3.132ZM193.823 98.62h1.308v1.465a3.066 3.066 0 0 1 2.686-1.645c1.343 0 2.29.596 2.686 1.803.6-1.243 1.908-1.803 2.891-1.803 2.014 0 3.081 1.185 3.081 3.533v5.157h-1.321v-4.984c0-1.451-.502-2.413-2.029-2.413-1.414 0-2.304 1.156-2.304 2.427v4.963h-1.322v-4.984c0-1.451-.502-2.413-2.014-2.413-1.513 0-2.34 1.256-2.34 2.499v4.891h-1.308v-8.51l-.014.014ZM208.589 98.62h1.258v1.465c.622-1.1 1.838-1.645 3.202-1.645 2.325 0 3.958 1.939 3.958 4.424 0 2.485-1.633 4.438-3.958 4.438-1.322 0-2.531-.56-3.145-1.659v3.951h-1.308V98.62h-.007Zm7.068 4.244c0-1.803-1.237-3.131-2.905-3.131-1.668 0-2.856 1.343-2.856 3.131 0 1.788 1.259 3.146 2.856 3.146s2.905-1.329 2.905-3.146ZM218.173 102.878c0-2.499 1.633-4.438 3.959-4.438 1.342 0 2.53.56 3.145 1.659v-1.487h1.307v8.511h-1.307v-1.487c-.622 1.121-1.81 1.659-3.145 1.659-2.326 0-3.959-1.96-3.959-4.424v.007Zm7.104 0c0-1.781-1.258-3.145-2.856-3.145-1.597 0-2.905 1.328-2.905 3.145s1.237 3.132 2.905 3.132c1.668 0 2.856-1.343 2.856-3.132ZM228.769 98.62h1.307v1.45c.587-1.034 1.668-1.623 2.905-1.623 2.099 0 3.025 1.293 3.025 3.534v5.156h-1.307v-4.984c0-1.573-.566-2.413-2.078-2.413-1.513 0-2.545 1.185-2.545 2.607v4.79h-1.307V98.619ZM238.247 108.437c.912 0 1.477-.258 2.05-1.486l.191-.388-3.768-7.95h1.357l2.63 5.716c.191.402.381.963.381.963s.255-.697.396-1.013l2.495-5.66h1.343l-3.993 8.935c-.912 2.011-2.1 2.147-3.082 2.147V108.437Z"/>
</svg>
